# xmcd CD database file
#
# Track frame offsets:
#	150
#	23006
#	38025
#	54289
#	70317
#	87213
#	106541
#	123822
#	143784
#	161399
#	182254
#	198531
#	218307
#
# Disc length: 3137 seconds
#
# Revision: 0
# Processed by: cddbd v1.5.2PL0 Copyright (c) Steve Scherf et al.
# Submitted via: CDex 1.70beta2
#
DISCID=960c3f0d
DTITLE=Blues Prophets - Keep on Jukin'
DYEAR=2014
DGENRE=Blues
TTITLE0=Going to Memphis
TTITLE1=Keep on Jukin'
TTITLE2=All She Left Was the Blues
TTITLE3=Drop Down Mama
TTITLE4=Little Sonny Boy
TTITLE5=Dark Nites
TTITLE6=Sugar Shake
TTITLE7=Bloodshot Eyes
TTITLE8=I'm Ready
TTITLE9=Street Sweeper
TTITLE10=Hoodoo Man Blues
TTITLE11=She Belongs to Me
TTITLE12=Twister
EXTD=YEAR: 2014
EXTT0=
EXTT1=
EXTT2=
EXTT3=
EXTT4=
EXTT5=
EXTT6=
EXTT7=
EXTT8=
EXTT9=
EXTT10=
EXTT11=
EXTT12=
PLAYORDER=
